<svg width="36" height="36" viewBox="0 0 36 36" fill="none" xmlns="http://www.w3.org/2000/svg">
<rect x="1" y="1" width="34" height="34" rx="17" fill="#EBECFB"/>
<path d="M24.8 17.0813C24.9281 16.7469 25 16.3812 25 16C25 14.3438 23.6562 13 22 13C21.3844 13 20.8094 13.1875 20.3344 13.5062C19.4688 12.0062 17.8531 11 16 11C13.2375 11 11 13.2375 11 16C11 16.0844 11.0031 16.1688 11.0062 16.2531C9.25625 16.8688 8 18.5375 8 20.5C8 22.9844 10.0156 25 12.5 25H24C26.2094 25 28 23.2094 28 21C28 19.0656 26.625 17.45 24.8 17.0813Z" fill="#3440D2"/>
<rect x="1" y="1" width="34" height="34" rx="17" stroke="white" stroke-width="2"/>
</svg>
