<svg width="46" height="46" viewBox="0 0 46 46" fill="none" xmlns="http://www.w3.org/2000/svg">
<g filter="url(#filter0_dd_525_61374)">
<rect x="3" y="2" width="40" height="40" rx="20" fill="white"/>
<rect x="6" y="5" width="34" height="34" rx="17" fill="#EBECFB"/>
<g clip-path="url(#clip0_525_61374)">
<path opacity="0.4" d="M28.5 17.75C28.6483 17.75 28.7933 17.706 28.9167 17.6236C29.04 17.5412 29.1361 17.4241 29.1929 17.287C29.2497 17.15 29.2645 16.9992 29.2356 16.8537C29.2067 16.7082 29.1352 16.5746 29.0303 16.4697C28.9254 16.3648 28.7918 16.2934 28.6463 16.2644C28.5008 16.2355 28.35 16.2503 28.213 16.3071C28.0759 16.3639 27.9588 16.46 27.8764 16.5833C27.794 16.7067 27.75 16.8517 27.75 17C27.75 17.1989 27.829 17.3897 27.9697 17.5303C28.1103 17.671 28.3011 17.75 28.5 17.75ZM28.5 26.25C28.3517 26.25 28.2067 26.294 28.0833 26.3764C27.96 26.4588 27.8639 26.5759 27.8071 26.713C27.7503 26.85 27.7355 27.0008 27.7644 27.1463C27.7933 27.2918 27.8648 27.4254 27.9697 27.5303C28.0746 27.6352 28.2082 27.7067 28.3537 27.7356C28.4992 27.7645 28.65 27.7497 28.787 27.6929C28.9241 27.6361 29.0412 27.54 29.1236 27.4167C29.206 27.2933 29.25 27.1483 29.25 27C29.25 26.8011 29.171 26.6103 29.0303 26.4697C28.8897 26.329 28.6989 26.25 28.5 26.25ZM30 20H16C15.7348 20 15.4804 20.1054 15.2929 20.2929C15.1054 20.4804 15 20.7348 15 21V23C15 23.2652 15.1054 23.5196 15.2929 23.7071C15.4804 23.8946 15.7348 24 16 24H30C30.2652 24 30.5196 23.8946 30.7071 23.7071C30.8946 23.5196 31 23.2652 31 23V21C31 20.7348 30.8946 20.4804 30.7071 20.2929C30.5196 20.1054 30.2652 20 30 20ZM26.5 22.75C26.3517 22.75 26.2067 22.706 26.0833 22.6236C25.96 22.5412 25.8639 22.4241 25.8071 22.287C25.7503 22.15 25.7355 21.9992 25.7644 21.8537C25.7933 21.7082 25.8648 21.5746 25.9697 21.4697C26.0746 21.3648 26.2082 21.2934 26.3537 21.2644C26.4992 21.2355 26.65 21.2503 26.787 21.3071C26.9241 21.3639 27.0412 21.46 27.1236 21.5833C27.206 21.7067 27.25 21.8517 27.25 22C27.25 22.1989 27.171 22.3897 27.0303 22.5303C26.8897 22.671 26.6989 22.75 26.5 22.75ZM28.5 22.75C28.3517 22.75 28.2067 22.706 28.0833 22.6236C27.96 22.5412 27.8639 22.4241 27.8071 22.287C27.7503 22.15 27.7355 21.9992 27.7644 21.8537C27.7933 21.7082 27.8648 21.5746 27.9697 21.4697C28.0746 21.3648 28.2082 21.2934 28.3537 21.2644C28.4992 21.2355 28.65 21.2503 28.787 21.3071C28.9241 21.3639 29.0412 21.46 29.1236 21.5833C29.206 21.7067 29.25 21.8517 29.25 22C29.25 22.1989 29.171 22.3897 29.0303 22.5303C28.8897 22.671 28.6989 22.75 28.5 22.75Z" fill="#3440D2"/>
<path d="M29.25 22C29.25 21.8517 29.206 21.7067 29.1236 21.5833C29.0412 21.46 28.9241 21.3639 28.787 21.3071C28.65 21.2503 28.4992 21.2355 28.3537 21.2644C28.2082 21.2933 28.0746 21.3648 27.9697 21.4697C27.8648 21.5746 27.7933 21.7082 27.7644 21.8537C27.7355 21.9992 27.7503 22.15 27.8071 22.287C27.8639 22.4241 27.96 22.5412 28.0833 22.6236C28.2067 22.706 28.3517 22.75 28.5 22.75C28.6989 22.75 28.8897 22.671 29.0303 22.5303C29.171 22.3897 29.25 22.1989 29.25 22ZM30 15H16C15.7348 15 15.4804 15.1054 15.2929 15.2929C15.1054 15.4804 15 15.7348 15 16V18C15 18.2652 15.1054 18.5196 15.2929 18.7071C15.4804 18.8946 15.7348 19 16 19H30C30.2652 19 30.5196 18.8946 30.7071 18.7071C30.8946 18.5196 31 18.2652 31 18V16C31 15.7348 30.8946 15.4804 30.7071 15.2929C30.5196 15.1054 30.2652 15 30 15ZM26.5 17.75C26.3517 17.75 26.2067 17.706 26.0833 17.6236C25.96 17.5412 25.8639 17.4241 25.8071 17.287C25.7503 17.15 25.7355 16.9992 25.7644 16.8537C25.7933 16.7082 25.8648 16.5746 25.9697 16.4697C26.0746 16.3648 26.2082 16.2933 26.3537 16.2644C26.4992 16.2355 26.65 16.2503 26.787 16.3071C26.9241 16.3639 27.0412 16.46 27.1236 16.5833C27.206 16.7067 27.25 16.8517 27.25 17C27.25 17.1989 27.171 17.3897 27.0303 17.5303C26.8897 17.671 26.6989 17.75 26.5 17.75ZM28.5 17.75C28.3517 17.75 28.2067 17.706 28.0833 17.6236C27.96 17.5412 27.8639 17.4241 27.8071 17.287C27.7503 17.15 27.7355 16.9992 27.7644 16.8537C27.7933 16.7082 27.8648 16.5746 27.9697 16.4697C28.0746 16.3648 28.2082 16.2933 28.3537 16.2644C28.4992 16.2355 28.65 16.2503 28.787 16.3071C28.9241 16.3639 29.0412 16.46 29.1236 16.5833C29.206 16.7067 29.25 16.8517 29.25 17C29.25 17.1989 29.171 17.3897 29.0303 17.5303C28.8897 17.671 28.6989 17.75 28.5 17.75ZM30 25H16C15.7348 25 15.4804 25.1054 15.2929 25.2929C15.1054 25.4804 15 25.7348 15 26V28C15 28.2652 15.1054 28.5196 15.2929 28.7071C15.4804 28.8946 15.7348 29 16 29H30C30.2652 29 30.5196 28.8946 30.7071 28.7071C30.8946 28.5196 31 28.2652 31 28V26C31 25.7348 30.8946 25.4804 30.7071 25.2929C30.5196 25.1054 30.2652 25 30 25ZM26.5 27.75C26.3517 27.75 26.2067 27.706 26.0833 27.6236C25.96 27.5412 25.8639 27.4241 25.8071 27.287C25.7503 27.15 25.7355 26.9992 25.7644 26.8537C25.7933 26.7082 25.8648 26.5746 25.9697 26.4697C26.0746 26.3648 26.2082 26.2933 26.3537 26.2644C26.4992 26.2355 26.65 26.2503 26.787 26.3071C26.9241 26.3639 27.0412 26.46 27.1236 26.5833C27.206 26.7067 27.25 26.8517 27.25 27C27.25 27.1989 27.171 27.3897 27.0303 27.5303C26.8897 27.671 26.6989 27.75 26.5 27.75ZM28.5 27.75C28.3517 27.75 28.2067 27.706 28.0833 27.6236C27.96 27.5412 27.8639 27.4241 27.8071 27.287C27.7503 27.15 27.7355 26.9992 27.7644 26.8537C27.7933 26.7082 27.8648 26.5746 27.9697 26.4697C28.0746 26.3648 28.2082 26.2933 28.3537 26.2644C28.4992 26.2355 28.65 26.2503 28.787 26.3071C28.9241 26.3639 29.0412 26.46 29.1236 26.5833C29.206 26.7067 29.25 26.8517 29.25 27C29.25 27.1989 29.171 27.3897 29.0303 27.5303C28.8897 27.671 28.6989 27.75 28.5 27.75Z" fill="#3440D2"/>
</g>
<rect x="3.5" y="2.5" width="39" height="39" rx="19.5" stroke="#CFD5DE"/>
</g>
<defs>
<filter id="filter0_dd_525_61374" x="0" y="0" width="46" height="46" filterUnits="userSpaceOnUse" color-interpolation-filters="sRGB">
<feFlood flood-opacity="0" result="BackgroundImageFix"/>
<feColorMatrix in="SourceAlpha" type="matrix" values="0 0 0 0 0 0 0 0 0 0 0 0 0 0 0 0 0 0 127 0" result="hardAlpha"/>
<feOffset dy="1"/>
<feGaussianBlur stdDeviation="1"/>
<feColorMatrix type="matrix" values="0 0 0 0 0 0 0 0 0 0 0 0 0 0 0 0 0 0 0.06 0"/>
<feBlend mode="normal" in2="BackgroundImageFix" result="effect1_dropShadow_525_61374"/>
<feColorMatrix in="SourceAlpha" type="matrix" values="0 0 0 0 0 0 0 0 0 0 0 0 0 0 0 0 0 0 127 0" result="hardAlpha"/>
<feOffset dy="1"/>
<feGaussianBlur stdDeviation="1.5"/>
<feColorMatrix type="matrix" values="0 0 0 0 0 0 0 0 0 0 0 0 0 0 0 0 0 0 0.1 0"/>
<feBlend mode="normal" in2="effect1_dropShadow_525_61374" result="effect2_dropShadow_525_61374"/>
<feBlend mode="normal" in="SourceGraphic" in2="effect2_dropShadow_525_61374" result="shape"/>
</filter>
<clipPath id="clip0_525_61374">
<rect width="16" height="16" fill="white" transform="translate(15 14)"/>
</clipPath>
</defs>
</svg>
