<svg width="30" height="30" viewBox="0 0 30 30" fill="none" xmlns="http://www.w3.org/2000/svg">
<g filter="url(#filter0_dd_525_61430)">
<rect x="3" y="2" width="24" height="24" rx="12" fill="#EBECFB"/>
<g clip-path="url(#clip0_525_61430)">
<path opacity="0.4" d="M19.125 10.8125C19.2363 10.8125 19.345 10.7795 19.4375 10.7177C19.53 10.6559 19.6021 10.568 19.6447 10.4653C19.6873 10.3625 19.6984 10.2494 19.6767 10.1403C19.655 10.0311 19.6014 9.93092 19.5227 9.85225C19.4441 9.77359 19.3439 9.72001 19.2347 9.69831C19.1256 9.6766 19.0125 9.68774 18.9097 9.73032C18.807 9.77289 18.7191 9.84499 18.6573 9.93749C18.5955 10.03 18.5625 10.1387 18.5625 10.25C18.5625 10.3992 18.6218 10.5423 18.7273 10.6477C18.8327 10.7532 18.9758 10.8125 19.125 10.8125ZM19.125 17.1875C19.0137 17.1875 18.905 17.2205 18.8125 17.2823C18.72 17.3441 18.6479 17.432 18.6053 17.5347C18.5627 17.6375 18.5516 17.7506 18.5733 17.8597C18.595 17.9689 18.6486 18.0691 18.7273 18.1477C18.8059 18.2264 18.9061 18.28 19.0153 18.3017C19.1244 18.3234 19.2375 18.3123 19.3403 18.2697C19.443 18.2271 19.5309 18.155 19.5927 18.0625C19.6545 17.97 19.6875 17.8613 19.6875 17.75C19.6875 17.6008 19.6282 17.4577 19.5227 17.3523C19.4173 17.2468 19.2742 17.1875 19.125 17.1875ZM20.25 12.5H9.75C9.55109 12.5 9.36032 12.579 9.21967 12.7197C9.07902 12.8603 9 13.0511 9 13.25V14.75C9 14.9489 9.07902 15.1397 9.21967 15.2803C9.36032 15.421 9.55109 15.5 9.75 15.5H20.25C20.4489 15.5 20.6397 15.421 20.7803 15.2803C20.921 15.1397 21 14.9489 21 14.75V13.25C21 13.0511 20.921 12.8603 20.7803 12.7197C20.6397 12.579 20.4489 12.5 20.25 12.5ZM17.625 14.5625C17.5137 14.5625 17.405 14.5295 17.3125 14.4677C17.22 14.4059 17.1479 14.318 17.1053 14.2153C17.0627 14.1125 17.0516 13.9994 17.0733 13.8903C17.095 13.7811 17.1486 13.6809 17.2273 13.6023C17.3059 13.5236 17.4061 13.47 17.5153 13.4483C17.6244 13.4266 17.7375 13.4377 17.8403 13.4803C17.943 13.5229 18.0309 13.595 18.0927 13.6875C18.1545 13.78 18.1875 13.8887 18.1875 14C18.1875 14.1492 18.1282 14.2923 18.0227 14.3977C17.9173 14.5032 17.7742 14.5625 17.625 14.5625ZM19.125 14.5625C19.0137 14.5625 18.905 14.5295 18.8125 14.4677C18.72 14.4059 18.6479 14.318 18.6053 14.2153C18.5627 14.1125 18.5516 13.9994 18.5733 13.8903C18.595 13.7811 18.6486 13.6809 18.7273 13.6023C18.8059 13.5236 18.9061 13.47 19.0153 13.4483C19.1244 13.4266 19.2375 13.4377 19.3403 13.4803C19.443 13.5229 19.5309 13.595 19.5927 13.6875C19.6545 13.78 19.6875 13.8887 19.6875 14C19.6875 14.1492 19.6282 14.2923 19.5227 14.3977C19.4173 14.5032 19.2742 14.5625 19.125 14.5625Z" fill="#3440D2"/>
<path d="M19.6875 14C19.6875 13.8887 19.6545 13.78 19.5927 13.6875C19.5309 13.595 19.443 13.5229 19.3403 13.4803C19.2375 13.4377 19.1244 13.4266 19.0153 13.4483C18.9061 13.47 18.8059 13.5236 18.7273 13.6023C18.6486 13.6809 18.595 13.7811 18.5733 13.8903C18.5516 13.9994 18.5627 14.1125 18.6053 14.2153C18.6479 14.318 18.72 14.4059 18.8125 14.4677C18.905 14.5295 19.0137 14.5625 19.125 14.5625C19.2742 14.5625 19.4173 14.5032 19.5227 14.3977C19.6282 14.2923 19.6875 14.1492 19.6875 14ZM20.25 8.75H9.75C9.55109 8.75 9.36032 8.82902 9.21967 8.96967C9.07902 9.11032 9 9.30109 9 9.5V11C9 11.1989 9.07902 11.3897 9.21967 11.5303C9.36032 11.671 9.55109 11.75 9.75 11.75H20.25C20.4489 11.75 20.6397 11.671 20.7803 11.5303C20.921 11.3897 21 11.1989 21 11V9.5C21 9.30109 20.921 9.11032 20.7803 8.96967C20.6397 8.82902 20.4489 8.75 20.25 8.75ZM17.625 10.8125C17.5137 10.8125 17.405 10.7795 17.3125 10.7177C17.22 10.6559 17.1479 10.568 17.1053 10.4653C17.0627 10.3625 17.0516 10.2494 17.0733 10.1403C17.095 10.0311 17.1486 9.93092 17.2273 9.85225C17.3059 9.77359 17.4061 9.72001 17.5153 9.69831C17.6244 9.6766 17.7375 9.68774 17.8403 9.73032C17.943 9.77289 18.0309 9.84499 18.0927 9.93749C18.1545 10.03 18.1875 10.1387 18.1875 10.25C18.1875 10.3992 18.1282 10.5423 18.0227 10.6477C17.9173 10.7532 17.7742 10.8125 17.625 10.8125ZM19.125 10.8125C19.0137 10.8125 18.905 10.7795 18.8125 10.7177C18.72 10.6559 18.6479 10.568 18.6053 10.4653C18.5627 10.3625 18.5516 10.2494 18.5733 10.1403C18.595 10.0311 18.6486 9.93092 18.7273 9.85225C18.8059 9.77359 18.9061 9.72001 19.0153 9.69831C19.1244 9.6766 19.2375 9.68774 19.3403 9.73032C19.443 9.77289 19.5309 9.84499 19.5927 9.93749C19.6545 10.03 19.6875 10.1387 19.6875 10.25C19.6875 10.3992 19.6282 10.5423 19.5227 10.6477C19.4173 10.7532 19.2742 10.8125 19.125 10.8125ZM20.25 16.25H9.75C9.55109 16.25 9.36032 16.329 9.21967 16.4697C9.07902 16.6103 9 16.8011 9 17V18.5C9 18.6989 9.07902 18.8897 9.21967 19.0303C9.36032 19.171 9.55109 19.25 9.75 19.25H20.25C20.4489 19.25 20.6397 19.171 20.7803 19.0303C20.921 18.8897 21 18.6989 21 18.5V17C21 16.8011 20.921 16.6103 20.7803 16.4697C20.6397 16.329 20.4489 16.25 20.25 16.25ZM17.625 18.3125C17.5137 18.3125 17.405 18.2795 17.3125 18.2177C17.22 18.1559 17.1479 18.068 17.1053 17.9653C17.0627 17.8625 17.0516 17.7494 17.0733 17.6403C17.095 17.5311 17.1486 17.4309 17.2273 17.3523C17.3059 17.2736 17.4061 17.22 17.5153 17.1983C17.6244 17.1766 17.7375 17.1877 17.8403 17.2303C17.943 17.2729 18.0309 17.345 18.0927 17.4375C18.1545 17.53 18.1875 17.6387 18.1875 17.75C18.1875 17.8992 18.1282 18.0423 18.0227 18.1477C17.9173 18.2532 17.7742 18.3125 17.625 18.3125ZM19.125 18.3125C19.0137 18.3125 18.905 18.2795 18.8125 18.2177C18.72 18.1559 18.6479 18.068 18.6053 17.9653C18.5627 17.8625 18.5516 17.7494 18.5733 17.6403C18.595 17.5311 18.6486 17.4309 18.7273 17.3523C18.8059 17.2736 18.9061 17.22 19.0153 17.1983C19.1244 17.1766 19.2375 17.1877 19.3403 17.2303C19.443 17.2729 19.5309 17.345 19.5927 17.4375C19.6545 17.53 19.6875 17.6387 19.6875 17.75C19.6875 17.8992 19.6282 18.0423 19.5227 18.1477C19.4173 18.2532 19.2742 18.3125 19.125 18.3125Z" fill="#3440D2"/>
</g>
<rect x="3.5" y="2.5" width="23" height="23" rx="11.5" stroke="#858CE4"/>
</g>
<defs>
<filter id="filter0_dd_525_61430" x="0" y="0" width="30" height="30" filterUnits="userSpaceOnUse" color-interpolation-filters="sRGB">
<feFlood flood-opacity="0" result="BackgroundImageFix"/>
<feColorMatrix in="SourceAlpha" type="matrix" values="0 0 0 0 0 0 0 0 0 0 0 0 0 0 0 0 0 0 127 0" result="hardAlpha"/>
<feOffset dy="1"/>
<feGaussianBlur stdDeviation="1"/>
<feColorMatrix type="matrix" values="0 0 0 0 0 0 0 0 0 0 0 0 0 0 0 0 0 0 0.06 0"/>
<feBlend mode="normal" in2="BackgroundImageFix" result="effect1_dropShadow_525_61430"/>
<feColorMatrix in="SourceAlpha" type="matrix" values="0 0 0 0 0 0 0 0 0 0 0 0 0 0 0 0 0 0 127 0" result="hardAlpha"/>
<feOffset dy="1"/>
<feGaussianBlur stdDeviation="1.5"/>
<feColorMatrix type="matrix" values="0 0 0 0 0 0 0 0 0 0 0 0 0 0 0 0 0 0 0.1 0"/>
<feBlend mode="normal" in2="effect1_dropShadow_525_61430" result="effect2_dropShadow_525_61430"/>
<feBlend mode="normal" in="SourceGraphic" in2="effect2_dropShadow_525_61430" result="shape"/>
</filter>
<clipPath id="clip0_525_61430">
<rect width="12" height="12" fill="white" transform="translate(9 8)"/>
</clipPath>
</defs>
</svg>
