<svg width="30" height="30" viewBox="0 0 30 30" fill="none" xmlns="http://www.w3.org/2000/svg">
<g filter="url(#filter0_dd_525_61514)">
<rect x="3" y="2" width="24" height="24" rx="12" fill="#FBEBEB"/>
<g clip-path="url(#clip0_525_61514)">
<path opacity="0.4" d="M17.125 11H13.375C13.375 10.8011 13.454 10.6103 13.5947 10.4697C13.7353 10.329 13.9261 10.25 14.125 10.25H16.375C16.5739 10.25 16.7647 10.329 16.9053 10.4697C17.046 10.6103 17.125 10.8011 17.125 11Z" fill="#DB3A34"/>
<path d="M17.6266 14.7781L15.25 17.1547L12.8734 14.7781C11.2656 14.9211 10 16.2547 10 17.9V18.875C10 19.1734 10.1185 19.4595 10.3295 19.6705C10.5405 19.8815 10.8266 20 11.125 20H19.375C19.6734 20 19.9595 19.8815 20.1705 19.6705C20.3815 19.4595 20.5 19.1734 20.5 18.875V17.9C20.5 16.2547 19.2344 14.9211 17.6266 14.7781ZM10.75 12.5C11.0534 12.5 11.3537 12.4383 11.6325 12.3186C11.9113 12.199 12.1629 12.0238 12.3719 11.8039C12.7258 13.0672 13.8719 14 15.25 14C16.0456 14 16.8087 13.6839 17.3713 13.1213C17.9339 12.5587 18.25 11.7956 18.25 11C18.25 10.2044 17.9339 9.44129 17.3713 8.87868C16.8087 8.31607 16.0456 8 15.25 8C14.0687 8 13.0563 8.68906 12.5664 9.68281C12.3593 9.39445 12.0866 9.15948 11.7707 8.99728C11.4549 8.83509 11.105 8.75033 10.75 8.75C10.7499 9.12175 10.8421 9.48771 11.0184 9.81498C11.1948 10.1423 11.4496 10.4206 11.7602 10.625C11.4496 10.8294 11.1948 11.1077 11.0184 11.435C10.8421 11.7623 10.7499 12.1282 10.75 12.5ZM14.125 10.25H16.375C16.5739 10.25 16.7647 10.329 16.9053 10.4697C17.046 10.6103 17.125 10.8011 17.125 11H13.375C13.375 10.8011 13.454 10.6103 13.5947 10.4697C13.7353 10.329 13.9261 10.25 14.125 10.25Z" fill="#DB3A34"/>
</g>
<rect x="3.5" y="2.5" width="23" height="23" rx="11.5" stroke="#ED9D9A"/>
</g>
<defs>
<filter id="filter0_dd_525_61514" x="0" y="0" width="30" height="30" filterUnits="userSpaceOnUse" color-interpolation-filters="sRGB">
<feFlood flood-opacity="0" result="BackgroundImageFix"/>
<feColorMatrix in="SourceAlpha" type="matrix" values="0 0 0 0 0 0 0 0 0 0 0 0 0 0 0 0 0 0 127 0" result="hardAlpha"/>
<feOffset dy="1"/>
<feGaussianBlur stdDeviation="1"/>
<feColorMatrix type="matrix" values="0 0 0 0 0 0 0 0 0 0 0 0 0 0 0 0 0 0 0.06 0"/>
<feBlend mode="normal" in2="BackgroundImageFix" result="effect1_dropShadow_525_61514"/>
<feColorMatrix in="SourceAlpha" type="matrix" values="0 0 0 0 0 0 0 0 0 0 0 0 0 0 0 0 0 0 127 0" result="hardAlpha"/>
<feOffset dy="1"/>
<feGaussianBlur stdDeviation="1.5"/>
<feColorMatrix type="matrix" values="0 0 0 0 0 0 0 0 0 0 0 0 0 0 0 0 0 0 0.1 0"/>
<feBlend mode="normal" in2="effect1_dropShadow_525_61514" result="effect2_dropShadow_525_61514"/>
<feBlend mode="normal" in="SourceGraphic" in2="effect2_dropShadow_525_61514" result="shape"/>
</filter>
<clipPath id="clip0_525_61514">
<rect width="10.5" height="12" fill="white" transform="translate(10 8)"/>
</clipPath>
</defs>
</svg>
