<svg width="36" height="36" viewBox="0 0 36 36" fill="none" xmlns="http://www.w3.org/2000/svg">
<rect x="1" y="1" width="34" height="34" rx="17" fill="#EBECFB"/>
<g clip-path="url(#clip0_525_61343)">
<path opacity="0.4" d="M19.5 24.4869V21.4997C19.5 21.3671 19.4473 21.2399 19.3536 21.1461C19.2598 21.0523 19.1326 20.9997 19 20.9997H17C16.8674 20.9997 16.7402 21.0523 16.6464 21.1461C16.5527 21.2399 16.5 21.3671 16.5 21.4997V24.4906C16.5 24.6228 16.4477 24.7496 16.3544 24.8433C16.2612 24.937 16.1347 24.9899 16.0025 24.9906L12.5 24.9997C12.3674 24.9997 12.2402 24.947 12.1464 24.8532C12.0527 24.7595 12 24.6323 12 24.4997V19.3765L17.7622 14.6312C17.8299 14.5766 17.9143 14.5469 18.0013 14.5469C18.0882 14.5469 18.1726 14.5766 18.2403 14.6312L24 19.3747V24.4997C24 24.6323 23.9473 24.7595 23.8536 24.8532C23.7598 24.947 23.6326 24.9997 23.5 24.9997L20 24.99C19.9341 24.99 19.8688 24.9769 19.8079 24.9516C19.7471 24.9263 19.6918 24.8892 19.6453 24.8424C19.5989 24.7957 19.5621 24.7402 19.5372 24.6792C19.5122 24.6181 19.4996 24.5528 19.5 24.4869Z" fill="#3440D2"/>
<path d="M26.9162 18.3859L26.1193 19.3547C26.088 19.3928 26.0495 19.4243 26.0061 19.4475C25.9626 19.4707 25.915 19.4851 25.8659 19.4899C25.8169 19.4947 25.7674 19.4898 25.7202 19.4754C25.6731 19.4611 25.6292 19.4376 25.5912 19.4062L18.2402 13.3503C18.1725 13.2957 18.0881 13.266 18.0012 13.266C17.9142 13.266 17.8298 13.2957 17.7621 13.3503L10.4115 19.4062C10.3346 19.4694 10.2359 19.4995 10.1369 19.4898C10.0379 19.4801 9.94682 19.4315 9.88367 19.3547L9.08679 18.3859C9.02349 18.3093 8.99324 18.2106 9.00267 18.1116C9.0121 18.0126 9.06046 17.9215 9.1371 17.8581L17.0465 11.3438C17.315 11.1228 17.6519 11.002 17.9996 11.002C18.3473 11.002 18.6842 11.1228 18.9527 11.3438L21.7499 13.6441V11.375C21.7499 11.2755 21.7894 11.1802 21.8598 11.1098C21.9301 11.0395 22.0255 11 22.1249 11H23.8749C23.9744 11 24.0698 11.0395 24.1401 11.1098C24.2104 11.1802 24.2499 11.2755 24.2499 11.375V15.7034L26.8624 17.8569C26.9008 17.888 26.9327 17.9264 26.9561 17.9699C26.9796 18.0134 26.9943 18.0611 26.9993 18.1102C27.0043 18.1594 26.9995 18.2091 26.9852 18.2564C26.971 18.3037 26.9475 18.3477 26.9162 18.3859Z" fill="#3440D2"/>
</g>
<rect x="1" y="1" width="34" height="34" rx="17" stroke="#C2C6F2" stroke-width="2"/>
<defs>
<clipPath id="clip0_525_61343">
<rect width="18" height="16" fill="white" transform="translate(9 10)"/>
</clipPath>
</defs>
</svg>
